<?xml version="1.0" encoding="UTF-8"?>
<svg width="216px" height="46px" viewBox="0 0 216 46" version="1.1" xmlns="http://www.w3.org/2000/svg" xmlns:xlink="http://www.w3.org/1999/xlink">
    <title>singularity-six-logo</title>
    <g id="homepage" stroke="none" stroke-width="1" fill="none" fill-rule="evenodd">
        <g id="Artboard" transform="translate(-172.000000, -11703.000000)" fill="#867D6F">
            <g id="footer-copy-2" transform="translate(121.000000, 11147.000000)">
                <g id="Group" transform="translate(43.000000, 341.000000)">
                    <g id="singularity-six-logo" transform="translate(8.000000, 214.999948)">
                        <path d="M17.1205831,30.591418 C14.0451174,30.591418 12.5341176,28.433044 11.8083211,26.6223085 L11.7582128,26.4973236 L10.2729129,27.1677325 L10.3133354,27.2797035 C11.4084874,30.3080758 13.9939759,32.1891637 17.0609179,32.1891637 C20.949224,32.1891637 24.2341634,29.1436543 24.2341634,25.5385473 C24.2341634,23.5461327 23.3993683,22.0921841 21.5977916,20.957527 L17.2954458,18.7218427 L17.1232951,18.640538 C15.3359245,17.7950213 13.3098933,16.8368893 13.3098933,14.6393448 C13.3098933,12.3070226 15.1149569,10.480052 17.419167,10.480052 C19.3186357,10.480052 20.7766859,11.3272437 21.8764871,13.0702039 L21.9547492,13.1940292 L23.1657445,12.1989171 L23.1136989,12.1052428 C22.0268122,10.1472313 19.8268224,8.88217746 17.5087938,8.88217746 C14.0408556,8.88217746 11.618865,11.2741574 11.618865,14.6990025 C11.618865,16.4584555 12.4227944,17.8479789 14.0158014,18.8330406 L18.0784536,20.9787873 C18.2109567,21.0439856 18.3466884,21.1096994 18.4843572,21.176315 C20.3867963,22.0975958 22.5431351,23.1416711 22.5431351,25.4194895 C22.5431351,28.2713367 20.1105546,30.591418 17.1205831,30.591418" id="Fill-1"></path>
                        <polygon id="Fill-3" points="29.9575722 31.8914418 31.6486005 31.8914418 31.6486005 9.18000241 29.9575722 9.18000241"></polygon>
                        <polygon id="Fill-5" points="37.9298653 8.68765192 37.9298653 31.8914289 39.6208936 31.8914289 39.6208936 12.7905082 58.5144605 32.8321661 58.5144605 9.17998952 56.8235614 9.17998952 56.8235614 28.5803587"></polygon>
                        <path d="M74.3957526,10.4799876 C77.8634325,10.4799876 80.9098405,12.1729537 82.9740986,15.2471968 L83.0521023,15.3632911 L84.4229795,14.2760509 L84.3497541,14.1761918 C81.8106288,10.7128203 78.3995145,8.88211304 74.4852502,8.88211304 C67.9461082,8.88211304 62.6259684,14.1499063 62.6259684,20.6250284 C62.6259684,26.8934743 67.9749076,32.1892281 74.3062549,32.1892281 C77.582154,32.1892281 80.8088488,30.8155534 82.9378088,28.514413 C85.1357323,26.1248813 85.3804626,23.3495713 85.3298376,20.9498604 L85.3272547,20.8237158 L75.5798856,20.8237158 L75.5798856,22.4215903 L83.6332561,22.4215903 C83.5157339,24.9398436 82.7053473,26.6587088 80.9408353,28.1483489 C78.9829929,29.7238034 76.658507,30.5913536 74.3957526,30.5913536 C68.9325198,30.5913536 64.3169967,25.9864959 64.3169967,20.535735 C64.3169967,15.1789061 69.0266667,10.4799876 74.3957526,10.4799876" id="Fill-6"></path>
                        <path d="M89.6250547,9.17996375 L89.6250547,23.3051952 C89.6250547,25.6147108 89.6250547,27.6093159 91.1793181,29.5248068 C92.6497663,31.1931625 94.9734773,32.1891766 97.3952095,32.1891766 C99.817071,32.1891766 102.140653,31.1931625 103.6142,29.5208124 C105.165364,27.6093159 105.165364,25.6147108 105.165364,23.3051952 L105.165364,9.17996375 L103.474336,9.17996375 L103.474336,22.8882351 C103.474336,24.9160836 103.474336,27.0131248 102.337212,28.4677176 C101.209903,29.9268202 98.9852462,30.5914309 97.3952095,30.5914309 C95.8051729,30.5914309 93.5805163,29.9268202 92.4526906,28.4672022 C91.3159538,27.0131248 91.3159538,24.9160836 91.3159538,22.8882351 L91.3159538,9.17996375 L89.6250547,9.17996375 Z" id="Fill-7"></path>
                        <polygon id="Fill-8" points="110.113256 8.88212592 110.113256 31.5935653 121.395775 31.5935653 121.395775 29.9959485 111.804155 29.9959485 111.804155 8.88212592"></polygon>
                        <path d="M138.379425,22.6104851 L129.957732,22.6104851 L134.18272,12.2426618 L138.379425,22.6104851 Z M124.631523,31.4162542 L124.55946,31.5935524 L126.300726,31.5935524 L129.315364,24.2082307 L139.021277,24.2082307 L142.003113,31.5132786 L142.035786,31.5935524 L143.776794,31.5935524 L134.302825,8.21814663 L134.183366,7.92320793 L124.631523,31.4162542 Z" id="Fill-9"></path>
                        <path d="M149.361565,10.4798587 L150.157875,10.4798587 C150.271006,10.4798587 150.385558,10.4794722 150.501402,10.4789568 C151.70439,10.4743181 153.067131,10.4691641 154.134775,10.9751599 C155.56028,11.6071714 156.44583,13.1139486 156.44583,14.9072893 C156.44583,16.3124035 155.886889,17.567407 154.912229,18.3506889 L154.908613,18.3537813 C153.829734,19.2884626 152.524204,19.3646132 151.053239,19.3646132 L149.361565,19.3646132 L149.361565,10.4798587 Z M158.136858,14.9668182 C158.136858,13.4621026 157.733795,11.3852909 155.815213,10.0382882 C154.217944,8.88211304 152.298716,8.88211304 150.605493,8.88211304 L147.670666,8.88211304 L147.670666,31.5935524 L149.361565,31.5935524 L149.361565,20.9623589 L150.856164,20.9623589 L158.198718,31.5935524 L160.154753,31.5935524 L152.738198,20.907984 C156.12387,20.5363792 158.136858,18.3294286 158.136858,14.9668182 L158.136858,14.9668182 Z" id="Fill-10"></path>
                        <polygon id="Fill-11" points="165.358262 31.5935396 167.049161 31.5935396 167.049161 8.88210015 165.358262 8.88210015"></polygon>
                        <polygon id="Fill-12" points="172.508829 10.4798587 178.329019 10.4798587 178.329019 31.5935524 180.019919 31.5935524 180.019919 10.4798587 185.840367 10.4798587 185.840367 8.88211304 172.508829 8.88211304"></polygon>
                        <polygon id="Fill-13" points="198.202567 31.5935911 198.202567 21.9104792 205.789593 8.88215169 203.909109 8.88215169 197.357052 20.1304101 190.805254 8.88215169 188.924511 8.88215169 196.511667 21.9104792 196.511667 31.5935911"></polygon>
                        <path d="M211.765714,0 L4.23428628,0 C1.89946877,0 0,1.89513253 0,4.22474881 L0,36.5488189 C0,38.8783063 1.89946877,40.7735677 4.23428628,40.7735677 L173.413311,40.7735677 L172.591172,39.1175816 L4.23428628,39.1175816 C2.81472137,39.1175816 1.65977513,37.965272 1.65977513,36.5488189 L1.65977513,4.22474881 C1.65977513,2.80829573 2.81472137,1.65598608 4.23428628,1.65598608 L211.765714,1.65598608 C213.185279,1.65598608 214.340354,2.80829573 214.340354,4.22474881 L214.340354,36.5488189 C214.340354,37.965272 213.185279,39.1175816 211.765714,39.1175816 L203.591722,39.1175816 L202.769583,40.7735677 L211.765714,40.7735677 C214.100531,40.7735677 216,38.8783063 216,36.5488189 L216,4.22474881 C216,1.89513253 214.100531,0 211.765714,0" id="Fill-14"></path>
                        <path d="M182.214032,38.9761296 L182.214032,38.9761296 L181.416818,38.6259141 C180.591193,38.2544382 179.563713,37.7922516 179.563713,36.7745907 C179.563713,35.7435293 180.428599,34.9357658 181.53292,34.9357658 C182.376368,34.9357658 182.945899,35.2515783 183.437296,35.9918242 L183.592142,36.2255589 L184.660819,35.541363 L184.508298,35.3024742 C183.856244,34.2813343 182.783175,33.6958379 181.564561,33.6958379 C179.945983,33.6958379 178.225768,34.7583387 178.225768,36.7273026 C178.225768,38.454543 179.452002,39.1536855 180.820038,39.7741005 L181.545835,40.089011 L181.6024,40.11491 C182.701168,40.615494 183.739109,41.0883752 183.739109,42.4485206 C183.739109,43.7231093 182.643053,44.759969 181.295938,44.759969 C180.206985,44.759969 179.250923,43.9707599 178.970936,42.8406125 L178.900294,42.5559819 L177.600575,42.9199844 L177.673413,43.1910858 C178.137691,44.9237379 179.537755,46.0000258 181.327579,46.0000258 C183.429935,46.0000258 185.076796,44.3846276 185.076796,42.3225049 C185.076796,40.3891037 183.722707,39.6364882 182.214032,38.9761296" id="Fill-15"></path>
                        <polygon id="Fill-16" points="187.360743 45.7951793 188.69843 45.7951793 188.69843 33.900607 187.360743 33.900607"></polygon>
                        <polygon id="Fill-17" points="198.666934 33.9006972 197.137854 33.9006972 194.708502 38.3707773 192.278892 33.9006972 190.749941 33.9006972 193.975474 39.6429178 190.449678 45.7952695 191.978629 45.7952695 194.708502 40.9150584 197.437988 45.7952695 198.967068 45.7952695 195.441273 39.6429178"></polygon>
                    </g>
                </g>
            </g>
        </g>
    </g>
</svg>