<?xml version="1.0" encoding="UTF-8"?><svg id="Layer_1" xmlns="http://www.w3.org/2000/svg" xmlns:xlink="http://www.w3.org/1999/xlink" viewBox="0 0 2145.14 1501.33"><defs><style>.cls-1{fill:url(#linear-gradient);stroke-width:0px;}</style><linearGradient id="linear-gradient" x1="1072.86" y1="96.57" x2="1072.86" y2="1352.06" gradientUnits="userSpaceOnUse"><stop offset="0" stop-color="#3e85b8"/><stop offset=".99" stop-color="#85def2"/></linearGradient></defs><path class="cls-1" d="m290.27,1086.2c3.53-1.46,6.78-3.27,9.88-5.43,9.81-6.84,19.34-14.06,28.3-21.97,4.82-4.26,9.63-8.64,13.81-13.5,8.93-10.37,16.96-21.45,24.48-32.9,5.96-9.08,11.5-18.42,15.68-28.46,4.17-10,8.17-20.08,11.92-30.24,3.7-10.02,7.19-20.15,9.65-30.55,4.74-20.04,8.38-40.31,11.55-60.65,1.47-9.46,2.38-19.03,3.14-28.58,1-12.53,1.82-25.08,2.31-37.64.67-16.97.13-33.95-.37-50.92-.14-4.71-.05-9.43.05-14.14.12-5.34.58-10.67.53-16.01-.19-20.58.76-41.17-.83-61.74-.41-5.32-.43-10.68-.57-16.02-.16-5.81-.21-11.63-.38-17.45-.07-2.58.8-4.5,3.07-5.91,4.54-2.82,8.87-5.98,13.51-8.63,11.05-6.31,22.21-12.43,33.37-18.56,9.23-5.07,18.55-9.97,27.77-15.05,14.45-7.97,28.76-16.19,43.29-24.02,19.51-10.51,39.23-20.63,58.73-31.15,17.84-9.63,35.45-19.69,53.29-29.32,10.97-5.92,21.42-12.53,31.11-20.37,15.05-12.17,29.65-24.84,43.11-38.76,7.32-7.57,14.71-15.06,22.04-22.61,6.59-6.78,12.77-13.88,17.35-22.25,2.03-3.72,4.47-7.22,6.52-10.93,4.64-8.4,8.83-17.04,11.54-26.28,3.68-12.57,5.78-25.44,6.11-38.55.21-8.33.37-16.66.28-24.98-.08-7.54-.56-15.09-2.03-22.51-.91-4.62-1.93-9.23-3.08-13.8-2.14-8.55-4.7-16.97-8.96-24.74-4.08-7.44-8.17-14.87-12.43-22.21-2.92-5.04-6.25-9.81-10.63-13.76-5.6-5.06-11.34-9.96-17.55-14.28-4.38-3.05-8.89-5.93-13.1-9.21-2.88-2.24-5.89-4.16-9.14-5.75-12.72-6.19-25.73-11.72-38.94-16.75-8.39-3.2-17.18-5.02-25.98-6.71-4.93-.95-9.96-1.5-14.82-2.73-11.34-2.87-22.85-4.32-34.49-4.85-7.7-.35-15.4-.51-23.1-.81-14.29-.56-28.57-1.69-42.89-1.22-.78.03-1.58,0-2.36-.09-10.35-1.12-20.73-.96-31.11-.79-13.99.22-27.99.55-41.97,1.03-10.05.35-20.1,1.03-30.14,1.56-8.32.44-16.64.89-24.96,1.32-3.3.17-6.6.25-9.89.49-14.43,1.02-28.85,2.08-43.27,3.11-5.02.36-10.03.71-15.06,1.03-8,.5-16,1-24.01,1.43-10.05.53-20.09,1.16-30.14,1.42-8.48.22-16.98.01-25.47-.07-2.83-.03-5.65-.26-8.48-.39-4.4-.2-8.79-.49-13.19-.55-8.65-.13-17.3.01-25.94-.22-5.56-.15-10.99.5-16.33,1.88-2.25.58-4.54,1.43-6.51,2.66-3.84,2.39-5.08,6.59-6.56,10.55-.05.13.02.31.04.47.37,2.33.4,4.77,1.17,6.96,1.55,4.43,3.44,8.75,5.31,13.06,1.06,2.45,2.28,4.83,3.58,7.17,1.29,2.33,2.62,4.65,4.16,6.81,4.66,6.52,9.57,12.87,14.11,19.47,3.22,4.69,6.87,8.97,10.76,13.1,3.66,3.89,7.22,7.88,10.75,11.9,3.53,4.01,6.98,8.09,10.43,12.18,5.49,6.49,10.79,13.14,14.95,20.57,5.37,9.6,10.46,19.35,15.67,29.03.37.69.68,1.42.97,2.15,4.55,11.39,8.54,22.97,11.7,34.83,3.36,12.62,5.62,25.46,7.62,38.36,1.73,11.18,3.45,22.36,5.02,33.57,1.33,9.49,2.51,19.01,3.66,28.53,1.85,15.29,3.7,30.58,5.39,45.89,1.18,10.62,2.07,21.28,3.15,31.91,1.72,16.92,2.33,33.86,1.43,50.86-.53,9.9-.23,19.79.43,29.69.35,5.17.55,10.37.44,15.54-.17,8.33-.64,16.65-1.03,24.97-.09,2.04-.41,4.07-.54,6.11-.08,1.35-.63,2.4-1.61,3.28-2.22,1.99-4.36,4.09-6.66,5.99-6.92,5.71-14.41,10.64-21.97,15.46-29.27,18.7-58.86,36.92-86.87,57.53-7.47,5.5-14.92,11-21.77,17.3-8.46,7.79-16.17,16.28-23.73,24.92-6.93,7.92-11.81,16.99-15.39,26.83-1.19,3.26-2.25,6.53-2.67,9.99-.28,2.34-.65,4.67-1.07,6.99-1.34,7.25.07,14.05,3.23,20.59,1.26,2.61,3.05,4.75,5.42,6.41,2.58,1.82,5.29,3.37,8.31,4.37,4.94,1.64,9.72,1.58,14.77-.04,7.12-2.28,12.87-6.66,18.2-11.45,7.99-7.17,14.7-15.37,18.74-25.65,4.08-10.37,8.74-20.52,13.87-30.45,3.15-6.09,7-11.57,12-16.2,7.61-7.05,15.32-13.99,23.02-20.94,9.52-8.6,20.28-15.32,31.6-21.27,7.23-3.8,14.28-7.94,21.41-11.93,4.37-2.45,8.72-4.91,13.82-7.78.13,1.99.27,3.21.27,4.44,0,4.4-.02,8.8-.08,13.21-.2,15.88.11,31.76-.95,47.62-.27,4.07-.49,8.17-.3,12.23.43,9.11.73,18.22.42,27.33-.4,11.47-.93,22.93-1.47,34.39-.21,4.4-.49,8.79-.95,13.17-1.04,10-2.38,19.97-3.29,29.98-.95,10.35-2.67,20.56-4.67,30.74-2.48,12.65-5.53,25.17-9.39,37.48-2.02,6.45-3.91,12.95-6.21,19.29-4.18,11.52-8.43,23.02-11.97,34.76-1.83,6.05-4.27,11.81-7.36,17.32-3.07,5.48-5.88,11.13-9.14,16.49-3.1,5.09-6.33,10.17-10.06,14.8-5.52,6.85-11.41,13.41-17.89,19.4-3.94,3.64-7.46,7.65-10.69,11.92-2.49,3.29-4.38,6.86-5.38,10.91-1.61,6.52-.73,12.88,1.67,18.95,2.02,5.13,5.59,9.06,11.13,10.79,2.61.81,5.22.98,7.92.62,9.42-1.26,18.34-4.28,27.14-7.67,7.66-2.95,14.67-7.17,21.72-11.31,3.25-1.91,6.48-3.93,9.95-5.36Zm73.02-918.58c2.62-2.65,5.86-4.24,9.43-5.09,5.51-1.32,11.09-2.4,16.77-2.33,7.86.09,15.71.44,23.56.67,1.89.06,3.77.15,5.66.14,17.29-.06,34.58-.16,51.87-.2,3.45,0,6.91.13,10.36.24,6.44.22,12.89.31,19.32.76,9.08.63,18.2,1.13,27.2,2.44,10.47,1.52,20.44,5.05,29.76,10.11,11.26,6.11,21.57,13.54,30.09,23.2,5.73,6.5,10.74,13.59,14.88,21.18,7.22,13.24,14.02,26.72,18.54,41.18,3.47,11.11,6.16,22.41,7.61,33.98.73,5.81.4,11.62.06,17.42-1.02,17.79-4.37,35.22-8.58,52.49-1.45,5.97-3.71,11.65-6.52,17.14-6.22,12.17-12.29,24.42-19.28,36.18-6.22,10.47-13.59,20.08-22.4,28.44-11.97,11.35-24.34,22.29-36.54,33.39-1.05.95-2.16,1.83-3.27,2.71-10.69,8.52-21.25,17.22-32.12,25.51-10.87,8.29-21.96,16.3-33.12,24.18-14.25,10.06-28.92,19.51-43.92,28.43-1.3.77-2.5,1.83-4.45,1.94-.16-1.32-.42-2.53-.43-3.73-.18-19.33-.2-38.66-.53-57.98-.2-11.94-.79-23.87-1.3-35.8-.31-7.38-.71-14.76-1.21-22.12-.85-12.54-1.79-25.08-2.74-37.61-1.46-19.27-2.95-38.54-3.55-57.87-.41-13.03-1.27-26.06-2.45-39.04-1.27-13.93-3.94-27.67-6.84-41.36-2.61-12.31-6.11-24.38-9.6-36.45-.78-2.71-1.68-5.43-2.88-7.97-3.7-7.8-7.58-15.52-11.38-23.27-3.86-4.73-6.31-10.52-10.95-14.7-1.14-1.03-2.03-2.41-2.79-3.76-2.54-4.5-1.9-8.77,1.74-12.45Zm832.08,1145.4c.24,4.06-.88,7.8-3.17,11.14-2.5,3.63-6.22,5.29-10.45,5.58-3.91.26-7.87.31-11.78.01-7.83-.59-15.62-1.56-23.29-3.45-6.89-1.7-13.61-3.76-20-6.87-2.12-1.03-4.33-1.85-6.48-2.82-10.65-4.81-19.71-11.66-26.77-21.04-.28-.38-.54-.78-.85-1.13-9.62-10.81-15.16-23.75-19.54-37.3-2.96-9.15-4.76-18.55-6.22-28.03-1.6-10.42-3.23-20.84-3.43-31.38-.21-11.15,0-22.3-.02-33.45,0-3.3-.17-6.6-.18-9.9-.02-12.11,0-24.21,0-36.32-.09,0-.18,0-.27,0,0-19.97,0-39.93,0-59.9,0-6.45-.1-12.89.02-19.33.09-4.86.53-9.72.65-14.59.11-4.71.04-9.42-.02-14.13-.03-2.67-.29-5.33-.25-8,.18-13.99.27-27.98.69-41.96.8-26.89-.25-53.76-.61-80.64-.25-18.71-.35-37.42-.12-56.13.25-20.28.78-40.55,1.53-60.81.63-16.98-.08-33.94.22-50.92,1.56-88.66.37-177.34.72-266.01.15-38.67.11-77.35.2-116.03.01-5.34.25-10.69.54-16.02.54-9.9.54-19.79.22-29.7-.29-8.95-.32-17.92-.4-26.88-.04-4.73-.48-9.41-1.47-14.04-1.52-7.07-2.94-14.16-5.65-20.9-.94-2.33-1.92-4.66-3.2-6.81-2.81-4.72-5.75-9.37-8.78-13.95-1.41-2.14-2.46-4.37-3.05-6.84-.33-1.37-.66-2.75-.99-4.12-2.08-8.58-1.02-17.03,2.31-24.95,4.62-10.98,12.87-18.18,25-19.83,5.19-.71,10.32.44,15.05,2.93,5.01,2.65,9.88,5.54,14.3,9.1,8.69,7,17.39,14,25.97,21.13,13.13,10.9,24.8,23.18,34.7,37.09,2.39,3.35,4.16,6.97,4.71,11.17,1.26,9.51,2.26,19.03,2.05,28.65-.15,7.07-.02,14.15-.07,21.22-.1,15.25-.22,30.5-.34,45.74,0,.79-.16,1.61,0,2.35,1.09,4.84.21,9.7.22,14.56.01,6.13.16,12.25.28,18.38.05,2.67.2,5.34.24,8.01.28,18.07.73,36.14.78,54.22.12,38.52.02,77.03.02,115.55,0,12.42.39,24.85-.07,37.26-.57,15.41-.28,30.8-.25,46.2.04,23.9.36,47.79.39,71.69.02,14.46-.33,28.92-.42,43.38-.06,9.75.03,19.49.09,29.24.1,18.08.28,36.16.33,54.23.04,18.55-.01,37.1-.09,55.65-.02,3.92-.47,7.85-.45,11.77.09,12.89.4,25.78.47,38.66.09,17.14.16,34.27.03,51.41-.15,20.43-.6,40.86-.78,61.3-.08,9.12.23,18.23.26,27.35.03,9.9-.06,19.8-.12,29.7-.04,6.76-.21,13.52-.19,20.28.06,25.63.31,51.25.2,76.88-.04,10.25.64,20.42,1.61,30.59.59,6.27,1.95,12.4,3.43,18.52,4.27,17.59,10.1,34.67,16.9,51.43,1.24,3.05,2.22,6.21,3.32,9.32,1.43,4.03,2.06,8.22,2.3,12.47Zm216.86-356.17c2.68,9.29,6.64,17.98,13,25.41,1.64,1.91,3.27,3.82,4.98,5.67,7.86,8.54,17.11,15.35,27.34,20.67,11.63,6.05,24.27,8.55,37.33,8.62,9.43.05,18.87-.21,28.3-.5,8.81-.26,17.61-1.09,26.14-3.37,11.08-2.95,22.08-6.21,33.03-9.58,13.74-4.23,26.43-10.83,38.99-17.71,6.2-3.4,12.32-6.95,18.64-10.08,18.58-9.22,37.34-18.08,55.56-28.01.8-.44,1.67-.75,2.95-1.32.39,1.67.64,2.74.88,3.8,2.26,10,5.63,19.61,10.02,28.89,4.18,8.85,10.12,16.14,18.02,22.01,9.3,6.92,19.47,12.07,30.18,16.3,10.46,4.13,21.39,6.3,32.53,7.41,5.78.57,11.59,1.21,17.41.37,1.39-.2,2.81-.4,4.11-.89,6.17-2.3,9.99-8.19,9.65-15.23-.21-4.38-.66-8.77-2.24-12.95-2.33-6.17-4.58-12.38-6.87-18.56-1.91-5.15-3.91-10.28-5.75-15.46-3.42-9.64-5.78-19.59-8.14-29.52-2.47-10.4-4.58-20.88-5.5-31.56-.41-4.7-.56-9.42-1.12-14.1-1.54-12.81-2.72-25.64-2.77-38.54-.08-18.56.71-37.08,3.2-55.5,1.7-12.61,3.12-25.27,5.24-37.81,1.62-9.63,2.62-19.3,3.3-29.02,1.13-16.01,1.42-32.04,1.01-48.08-.27-10.54-1.18-21.01-3.45-31.35-2.26-10.27-4.61-20.52-7.5-30.64-3.03-10.62-7.29-20.65-13.38-29.98-7.25-11.1-16.43-20.21-26.86-28.19-6.01-4.6-12.48-8.35-19.43-11.43-12.62-5.6-25.01-11.73-38.39-15.49-6.2-1.74-12.28-3.81-18.78-4.13-.47-.02-.93-.16-1.39-.27-6.91-1.66-13.9-2.64-21.01-2.44-6.44.19-12.87.62-19.31.87-14.35.56-28.41,2.76-42.26,6.7-16.8,4.77-33.31,10.37-49.34,17.25-12.69,5.44-25.08,11.62-37.47,17.74-5.34,2.64-10.39,5.87-15.48,8.99-9.81,6.02-18.69,13.32-27.49,20.68-5.68,4.75-10.78,10.06-14.97,16.24-5.35,7.88-9.45,16.28-11.92,25.49-1.03,3.84-1.61,7.72-1.29,11.66.38,4.72,1.01,9.54,4.1,13.33,6.39,7.84,14.38,11.83,24.87,9.97,7.17-1.27,13.38-4.65,19.31-8.39,9.12-5.74,16.84-12.98,22.47-22.44,6.03-10.12,12.46-20.02,19.78-29.29,10.94-13.86,10.32-13.09,23.68-21.92.79-.52,1.57-1.04,2.37-1.55,10.78-6.95,22.2-12.43,34.86-15.04,3.85-.79,7.71-1.5,11.54-2.38,6.49-1.5,13.02-2.04,19.67-1.56,5.33.39,10.68.56,16,1,4.71.39,9.36,1.21,13.71,3.18,6.72,3.03,13.59,5.79,19.31,10.66,5.07,4.32,8.87,9.75,13.11,14.81.49.59.83,1.34,1.14,2.06,5.52,12.74,10.28,25.66,10.88,39.77.25,5.96,1.17,11.89,1.51,17.85.31,5.49.18,11,.39,16.5.1,2.69-.97,4.39-3.29,5.7-4.1,2.31-8,4.99-12.14,7.24-5.1,2.78-10.35,5.29-15.55,7.89-10.68,5.34-21.37,10.65-32.05,15.98-16.31,8.14-32.64,16.25-49.68,22.78-8.22,3.15-16.31,6.58-24.36,10.14-17.42,7.7-34.2,16.62-50.69,26.11-14.9,8.58-28.9,18.41-41.4,30.28-6.15,5.85-12.14,11.87-18.26,17.74-17.16,16.44-28.14,36.43-34.12,59.29-2.52,9.63-3.89,19.41-3.73,29.36.09,5.34.56,10.67.92,15.99.74,10.87,2.98,21.47,5.99,31.9Zm117.81-131.55c3.2-4.7,7.01-8.88,11-12.9,3.54-3.57,7.2-7.02,10.88-10.45,4.37-4.07,8.78-8.1,13.23-12.07,6.46-5.77,13.54-10.74,20.78-15.45,8.17-5.3,16.5-10.35,24.71-15.59,5.19-3.31,10.82-5.72,16.33-8.37,10.46-5.04,21.02-9.9,31.46-15,7.62-3.72,15.1-7.72,22.67-11.53,4.06-2.05,8.19-3.99,12.3-5.94.39-.19.9-.13,1.34-.19,1.28,1.31,1,2.95,1.17,4.48,1.49,13.14,1.18,26.35,1.34,39.54.16,12.75-.7,25.44-1.87,38.12-.48,5.16-.78,10.34-1.04,15.52-.69,13.65-1.61,27.3-1.35,40.98.17,9.42.19,18.85.49,28.27.32,9.89.89,19.77,1.34,29.65.01.3-.1.61-.19,1.18-.47.34-1.06.85-1.73,1.21-13.71,7.37-27.84,13.8-42.55,18.97-6.88,2.42-13.99,3.58-21.15,4.56-7.31,1-14.65,1.82-21.99,2.63-2.34.26-4.71.32-7.06.31-7.86-.04-15.71-.07-23.56-.28-7.65-.2-14.84-2.41-21.79-5.5-1.29-.57-2.53-1.31-3.86-1.75-10.9-3.61-18.19-11.4-24.15-20.74-5.53-8.68-9.62-17.99-12.08-27.98-.59-2.41-.7-4.98-.78-7.48-.6-19.82,4.99-37.82,16.11-54.17Zm-805.3-276.22c-12.84,5.5-25.35,11.76-37.89,17.93-4.92,2.42-9.57,5.41-14.26,8.28-10.09,6.16-19.26,13.6-28.26,21.22-3.94,3.34-7.77,6.95-11,10.97-7.03,8.75-12.62,18.36-15.55,29.37-.98,3.68-1.72,7.36-1.7,11.14.03,5.08.55,10.28,3.61,14.43,5.86,7.97,13.62,12.47,23.95,10.95,4.7-.69,8.98-2.4,13.31-4.43,6.65-3.13,12.32-7.52,17.96-12.02,4.74-3.78,8.13-8.7,11.36-13.76,6.43-10.06,12.67-20.27,20.07-29.67,11.33-14.39,10.46-13.39,24.35-22.56.92-.61,1.85-1.19,2.78-1.79,10.53-6.77,21.71-12.01,34.04-14.57,4-.83,8.01-1.58,12-2.48,6.18-1.39,12.4-1.94,18.73-1.49,5.49.39,10.99.56,16.47,1.02,4.7.39,9.37,1.16,13.71,3.17,3.71,1.71,7.31,3.63,11.04,5.28,5.15,2.28,9.29,5.83,12.98,9.97,9.11,10.25,9.41,10.78,14.17,23.58.49,1.33.99,2.65,1.45,3.98,2.12,6.11,3.69,12.34,4.23,18.8.8,9.55,1.68,19.09,2.39,28.65.27,3.6.11,7.23.24,10.84.09,2.42-.78,4.25-2.81,5.59-2.36,1.56-4.56,3.38-7.04,4.72-6.91,3.74-13.88,7.36-20.89,10.9-10.8,5.45-21.65,10.78-32.47,16.2-14.9,7.45-29.84,14.8-45.29,21.06-9.31,3.78-18.69,7.37-27.88,11.46-17.55,7.8-34.51,16.69-51.12,26.27-11.04,6.37-21.71,13.3-31.53,21.48-12.09,10.08-23.41,20.98-34.06,32.57-3.18,3.46-6.13,7.17-8.95,10.94-9.94,13.31-15.98,28.43-20.06,44.39-2.74,10.72-3.9,21.68-3.29,32.72.75,13.67,2.52,27.21,6.26,40.45,2.94,10.4,7.1,20.15,14.28,28.39,2.48,2.84,5.03,5.63,7.71,8.28,7.32,7.24,15.68,13.19,24.85,17.75,11.42,5.68,23.75,8.13,36.49,8.17,9.43.02,18.87-.21,28.3-.5,8.81-.27,17.6-1.13,26.13-3.36,9.87-2.59,19.67-5.46,29.43-8.45,5.4-1.65,10.71-3.64,15.95-5.74,9.78-3.93,19.1-8.85,28.26-14.06,7.78-4.43,15.64-8.7,23.74-12.54,16.61-7.88,33.06-16.09,49.24-24.82.66-.36,1.39-.59,2.02-.85.35.38.67.57.75.84.24.74.39,1.51.56,2.28,2.87,12.81,7.24,25.04,13.98,36.35,2.35,3.95,5.22,7.45,8.73,10.44,10.64,9.07,22.58,15.88,35.6,20.87,10.49,4.03,21.4,6.27,32.53,7.37,5.62.55,11.25.83,16.94.5,8.78-.52,14.19-8.07,14.12-14.88-.05-4.75-.45-9.43-2.04-13.93-1.89-5.33-3.67-10.71-5.83-15.93-6.65-16.01-11.63-32.52-15.4-49.42-2.63-11.82-5.02-23.66-5.49-35.82-.16-4.23-.87-8.44-1.24-12.66-.73-8.45-1.68-16.9-2.04-25.37-.75-17.77-.07-35.52,1.62-53.22.52-5.47,1.22-10.93,1.95-16.38,1.47-10.9,3-21.79,4.56-32.68.65-4.51,1.65-8.98,2.09-13.5.74-7.66,1.28-15.35,1.68-23.04.89-16.81,1.1-33.63.06-50.43-.37-5.94-1.19-11.89-2.26-17.75-2.03-11.12-4.81-22.09-7.81-32.99-3.01-10.95-7.3-21.3-13.52-30.93-7.54-11.69-17.22-21.17-28.24-29.43-5.67-4.25-11.8-7.68-18.3-10.58-12.61-5.63-25.01-11.72-38.39-15.49-6.2-1.75-12.28-3.82-18.77-4.13-.47-.02-.93-.17-1.38-.28-7.06-1.7-14.22-2.69-21.48-2.43-8.95.32-17.91.69-26.84,1.33-5.63.41-11.29,1.05-16.82,2.15-6.92,1.38-13.75,3.25-20.58,5.07-15.82,4.21-31.18,9.82-46.19,16.25Zm152.97,168.89c.38-.18.9-.09,2.01-.18.46,5.67,1.14,10.97,1.27,16.29.31,12.87.47,25.75.48,38.63,0,5.18-.53,10.35-.87,15.53-1.1,17.09-2.52,34.17-3.24,51.27-.59,14.12-.66,28.27.19,42.41.65,10.82.94,21.66,1.38,32.49.01.31-.09.62-.19,1.16-.63.43-1.35,1.01-2.16,1.45-13.43,7.24-27.3,13.48-41.68,18.6-6.87,2.44-13.97,3.65-21.13,4.62-7.47,1.01-14.97,1.84-22.46,2.69-1.71.2-3.45.24-5.18.25-8.48.07-16.97.45-25.45-.21-5.51-.43-10.94-1.25-16.07-3.38-5.36-2.22-10.7-4.51-16.01-6.87-5.48-2.44-9.5-6.73-13.03-11.34-7.22-9.43-12.61-19.83-15.81-31.36-1.33-4.78-1.78-9.54-1.54-14.41.22-4.39.42-8.8,1.06-13.14,2.42-16.43,9.39-30.85,19.98-43.54,6.05-7.26,13.05-13.6,20.09-19.88,2.93-2.61,5.83-5.27,8.7-7.95,6.45-6.04,13.67-11.08,21-15.93,7.73-5.11,15.7-9.84,23.47-14.89,5.69-3.7,11.81-6.53,17.89-9.46,9.19-4.44,18.38-8.88,27.65-13.15,9.13-4.21,18.06-8.79,26.93-13.53,4.15-2.22,8.46-4.14,12.71-6.16Zm1127.8,335.55c-2.39,3.49-4.31,7.31-6.54,10.91-5.11,8.25-12.29,14.64-19.26,21.22-12.61,11.92-26.67,21.9-41.28,31.2-10.61,6.76-21.62,12.78-32.75,18.6-23.27,12.17-47.12,23.09-71.55,32.72-19.59,7.72-39.31,15.1-59.57,20.88-13.29,3.79-26.67,7.28-40.12,10.49-14.21,3.39-28.5,6.42-42.82,9.33-13.7,2.79-27.48,5.19-41.21,7.83-12.35,2.37-24.72,4.56-37.19,6.19-11.53,1.5-23.07,2.94-34.61,4.37-5.93.73-11.86,1.44-17.8,2.07-8.28.88-16.57,1.71-24.86,2.52-7.5.74-15.01,1.43-22.52,2.15-19.41,1.85-38.83,3.51-58.33,3.87-10.84.2-21.69.48-32.53.74-9.9.24-19.8.5-25.49.65-19.62,0-35.03,0-50.44,0-12.11,0-24.21-.03-36.32.08-11.35.1-22.61-1.07-33.88-2.07-8.29-.74-16.57-1.68-24.86-2.53-10.78-1.12-21.58-2.16-32.27-4.03-1.7-.3-3.45-.35-5.13-.75-3.05-.72-6.11-1.44-9.07-2.47-6.67-2.31-10.76-7.43-13.83-13.45-.69-1.35-.93-3.01-1.04-4.55-1.01-14.28-1.17-28.58-1.06-42.89.04-4.77.86-9.36,3.43-13.54,1.04-1.7,2.36-2.86,4.19-3.59,4.58-1.82,9.25-2.93,14.25-2.48,5.48.49,10.97.79,16.47,1.1,10.36.58,20.73.96,31.08,1.68,8.31.58,16.59,1.47,24.88,2.34,12.35,1.3,24.68,2.76,37.03,4.04,5,.52,10.03.7,15.04,1.12,7.99.67,15.96,1.49,23.95,2.12,7.99.63,15.98,1.29,23.98,1.61,11.15.46,22.31.73,33.48.88,10.85.14,21.7.02,32.54.03,13.21.01,26.41.13,39.62.05,13.36-.08,26.7-.56,40.04-1.48,22.92-1.57,45.6-4.98,68.26-8.61,12.26-1.97,24.57-3.61,36.79-5.74,12.38-2.15,24.72-4.58,37.03-7.14,9.23-1.92,18.4-4.13,27.55-6.37,8.08-1.98,16.09-4.31,24.17-6.29,9-2.2,18.07-4.11,27.1-6.24,14.68-3.46,29.14-7.74,43.53-12.27,16.64-5.25,33.06-11.12,49.27-17.55,12.27-4.87,24.34-10.19,36.12-16.17,4.06-2.06,8.29-3.78,12.49-5.53,15.08-6.28,30.17-12.56,44.8-19.87,12.79-6.39,25.59-12.76,37.78-20.28,5.98-3.69,12.58-5.66,19.42-6.92,5.35-.98,9.83,1.34,14.03,4.22,1.57,1.08,2.47,2.83,2.69,4.81.91,8.17.13,15.94-4.71,22.98Zm-966.32,112.13c.06,5.97.18,11.95.1,17.92-.04,2.98-.49,5.95-.71,8.92-.15,2-1.09,3.58-2.49,4.93-3.16,3.05-6.61,4.79-11.33,4.63-13.2-.44-26.4-.94-39.53-2.43-11.55-1.31-23.07-2.94-34.56-4.74-14.59-2.29-29.17-4.66-43.68-7.41-14.97-2.84-29.91-5.94-44.53-10.28-13.56-4.03-27.29-7.39-41.1-10.41-12.27-2.69-24.63-4.95-36.89-7.65-15.35-3.38-30.73-6.56-46.25-8.99-15.06-2.36-30.13-4.77-45.35-5.8-9.25-.63-18.53-.83-27.79-1.3-7.53-.39-15.06-.92-22.59-1.33-3.45-.19-6.91-.23-10.36-.32-5.65-.15-11.3-.42-16.95-.4-6.73.03-13.49,0-20.2.57-6.78.57-13.49.05-20.22-.25-9.71-.43-19.42-.96-29.14-.82-3.6.05-7.19.31-10.79.48-4.85.22-9.71.32-14.55.68-5.94.45-11.87,1.09-17.8,1.68-6.08.61-12.16,1.13-18.22,1.92-6.53.86-13.04,1.87-19.51,3.06-7.53,1.38-15.05,2.9-22.51,4.61-5.64,1.29-11.27,2.73-16.77,4.53-9.37,3.06-18.78,6-27.82,10.03-7.73,3.45-15.68,6.38-23.54,9.53-.58.23-1.2.41-1.81.52-8.54,1.57-16.52,5.01-24.83,7.33-1.06.3-2.15.61-3.08,1.16-7.77,4.6-16.41,7.13-24.76,10.32-5.71,2.19-11.61,3.88-17.43,5.77-.74.24-1.54.33-2.29.54-3.81,1.05-7.47.6-11.01-1.07-5.83-2.74-11.68-5.43-17.45-8.29-1.35-.67-2.58-1.79-3.57-2.96-2.22-2.65-4.21-5.48-6.37-8.18-1.15-1.43-1.58-3.02-1.68-4.79-.39-7.08-.19-14.14.74-21.18.12-.93.26-1.89.61-2.75,3.37-8.25,7.72-15.95,14.91-21.42,9.64-7.33,19.85-13.81,30.81-19.08,9.65-4.65,19.73-8.17,29.78-11.78,1.6-.58,3.08-1.49,4.65-2.16,2.16-.93,4.32-1.84,6.53-2.64,11.85-4.35,24.19-6.73,36.59-8.82,14.87-2.51,29.76-4.92,44.67-7.24,6.05-.94,12.15-1.58,18.24-2.29,6.55-.76,13.11-1.55,19.68-2.12,10.8-.93,21.62-1.85,32.44-2.49,16.16-.95,32.34-1.65,48.51-2.45,0-.04,0-.08,0-.12,13.51-.45,27.02-1,40.54-1.31,4.86-.11,9.73.36,14.6.59,2.04.1,4.08.36,6.12.39,14.16.2,28.25,1.52,42.36,2.54,10.5.76,21.01,1.51,31.53,2.03,13.69.67,27.19,2.67,40.68,5.02,20.12,3.5,40.28,6.77,60.44,10.08,14.73,2.42,29.47,4.77,44.21,7.14,17.22,2.77,34.45,5.47,51.65,8.33,12.71,2.11,25.37,4.46,38.07,6.61,5.88.99,11.85,1.53,17.71,2.66,13.61,2.62,27.39,3.79,41.12,5.39,9.37,1.09,18.76,1.95,28.1,3.22,7.77,1.06,15.5,2.43,22.89,5.32,3.81,1.49,6.33,4.04,7.45,7.9.74,2.56,1.35,5.17,1.8,7.8,1.19,6.98,1.89,14.02,1.96,21.1Zm298.4-551.9c-.41,11.47-.63,22.93-.4,34.42.22,11,.01,22.01-.09,33.01-.09,9.74-.56,19.49-.37,29.22.25,12.57,1.11,25.12,1.47,37.69.39,13.51,1.26,27,1.11,40.54-.11,9.73.8,19.47,1.21,29.2.26,6.12.52,12.25.67,18.38.29,11.47.6,22.94.71,34.42.16,18.23.33,36.47.16,54.71-.08,8.47-.95,16.94-1.43,25.41-.13,2.35-.22,4.71-.22,7.07.01,7.13-1.29,14.11-3.04,20.95-2.03,7.9-6.87,14.16-13.42,18.84-9.24,6.59-19.22,11.9-29.96,15.72-3.7,1.31-7.25,3-10.92,4.41-13.36,5.11-27.28,7.26-41.5,7.65-2.67,0-5.35.09-8.01-.02-6.6-.26-11.98-5.15-13.29-11.97-.88-4.57-.41-9.17.95-13.51,2.36-7.48,5.07-14.86,7.87-22.2,3.19-8.37,6.26-16.77,8.87-25.35,1.75-5.77,2.75-11.63,3.05-17.6.52-10.36.78-20.73,1.15-31.1.11-2.98.25-5.97.35-8.95.12-3.3.29-6.6.31-9.9.06-10.69.08-21.38.08-32.06,0-19.34-.08-38.67.02-58.01.06-10.86-.68-21.67-1.24-32.5-.41-7.84-.28-15.72-.26-23.58.05-25.15.17-50.31.24-75.46,0-3.46-.03-6.92-.26-10.37-.96-13.97-1.08-27.95-.95-41.94.06-7.07,1.94-13.58,4.15-20.17,3.3-9.83,9.4-17.69,16.47-24.95,8.46-8.69,17.62-16.59,27.07-24.18,4.29-3.45,8.6-6.86,12.87-10.33,4.29-3.49,8.94-6.39,13.75-9.08,10.03-5.61,21.75-4.08,30.14,3.62,2.81,2.58,5.28,5.39,7.1,8.74,2.12,3.94,3.28,8.1,3.24,12.63-.07,7.26-1.73,13.94-6.04,19.95-2.76,3.86-4.19,8.42-5.72,12.88-3.76,10.95-5.46,22.26-5.88,33.78Zm-116.38-176.58c-1.77-2.37-3.15-5.03-5.02-8.06,3.6-3.28,7.34-5.19,11.21-6.87,4.08-1.76,8.28-2.8,12.79-2.7,4.32.09,8.19,1.84,12.56,3.27,0-1.33.07-2.21-.01-3.08-.61-6.73-1.18-13.46-.2-20.21.25-1.71.56-3.41.82-5.11.62-4.06,3.61-5.44,6.47-5.77,2.38-.27,4.73.05,6.96.89,5,1.88,9.91,3.97,14.31,7.08.87.61,1.8,1.13,2.95,1.85.63-1.75,1.12-3.2,1.66-4.64,3.58-9.39,8.59-17.79,16.5-24.26,2.57-2.1,5.3-3.22,8.67-2.82,2.29.27,4.21,1.23,5.93,2.64,3.29,2.7,6.29,5.68,8.75,9.18,3.63,5.18,6.55,10.71,8.46,16.75.28.89.6,1.77,1,2.94,1.1-.54,2.1-.92,2.97-1.49,4.47-2.98,9.22-5.39,14.36-6.96,2.4-.73,4.85-1.35,7.42-.92,3.96.67,5.85,2.27,6.31,6.45.56,5.14.79,10.33.82,15.5.02,3.59-.56,7.19-.83,10.79-.03.42.19.85.35,1.53,1.26-.52,2.4-.97,3.53-1.45,5.71-2.44,11.55-2.82,17.49-.99,5.44,1.68,10.48,4.12,15.08,8.06-.47,1.16-.8,2.35-1.4,3.39-4.23,7.27-9.64,13.57-16.2,18.82-5.39,4.32-10.85,8.58-16.48,12.58-4.85,3.45-9.86,6.75-15.03,9.69-7.23,4.11-14.62,7.94-22.06,11.68-10.55,5.31-21.77,5.68-33.12,3.65-3.5-.63-6.97-1.98-10.18-3.55-15.82-7.73-31.38-15.93-45.06-27.21-2.18-1.8-4.46-3.48-6.73-5.17-5.86-4.35-10.73-9.67-15.07-15.48Zm637.11,441.73h-30.29v-17.27h81.12v17.27h-30.22v84.81h-20.61v-84.81Zm83,84.81h-19.15v-102.08h30.85l18.52,69.63,18.31-69.63h30.92v102.08h-19.15v-80.35l-20.26,80.35h-19.84l-20.19-80.35v80.35Z"/></svg>